# xmcd
#
# Track frame offsets: 
#        150
#        10443
#        20265
#        29810
#        40738
#        50922
#        62683
#        73322
#        84904
#        96399
#        107327
#        117926
#        128242
#        139922
#        152410
#        164318
#        176896
#
# Disc length: 2507 seconds
#
# Revision: 0
# Processed by: cddbd v1.5.2PL0 Copyright (c) Steve Scherf et al.
# Submitted via: ExactAudioCopy v1.0b4
#
DISCID=ec09c911
DTITLE=Chubby Checker - The King Of Twist CD 1
DYEAR=1900
DGENRE=R&B
TTITLE0=The Class
TTITLE1=Schooldays, Oh Schooldays
TTITLE2=The Jet
TTITLE3=Ray Charles-Ton
TTITLE4=Samson And Delilah Twist
TTITLE5=The Twist
TTITLE6=Toot
TTITLE7=The Hucklebuck
TTITLE8=Whole Lotta Shakin' Goin' On
TTITLE9=Rock Around The Clock
TTITLE10="Ooh Poo Pah Doo" - Shimmy
TTITLE11="C. C. Rider" Stroll
TTITLE12=The Strand
TTITLE13=The Chicken
TTITLE14=The Madison
TTITLE15="Love Is Strange" Calypso
TTITLE16=Dance With Me Henry
EXTD=
EXTT0=
EXTT1=
EXTT2=
EXTT3=
EXTT4=
EXTT5=
EXTT6=
EXTT7=
EXTT8=
EXTT9=
EXTT10=
EXTT11=
EXTT12=
EXTT13=
EXTT14=
EXTT15=
EXTT16=
PLAYORDER=
